<?xml version="1.0" standalone="no"?>
<!DOCTYPE svg PUBLIC "-//W3C//DTD SVG 20010904//EN"
 "http://www.w3.org/TR/2001/REC-SVG-20010904/DTD/svg10.dtd">
<svg version="1.0" xmlns="http://www.w3.org/2000/svg"
 width="1024.000000pt" height="1024.000000pt" viewBox="0 0 1024.000000 1024.000000"
 preserveAspectRatio="xMidYMid meet">

<g transform="translate(0.000000,1024.000000) scale(0.100000,-0.100000)"
fill="#000000" stroke="none">
<path d="M0 5120 l0 -5120 5120 0 5120 0 0 5120 0 5120 -5120 0 -5120 0 0
-5120z m5202 2888 c15 -40 54 -146 86 -236 85 -231 83 -212 18 -212 l-55 0
-18 58 -18 57 -100 3 -101 3 -20 -58 -21 -58 -52 -3 c-63 -4 -63 -4 -11 131
86 223 110 287 110 291 0 2 9 25 20 50 l19 46 59 0 58 0 26 -72z m310 53 c21
-8 26 -20 37 -88 26 -160 58 -289 67 -268 21 53 167 315 174 315 5 0 32 -5 60
-11 l51 -11 -17 -26 c-30 -45 -120 -200 -191 -329 -74 -134 -67 -128 -144
-107 -12 3 -24 44 -48 162 -43 213 -67 324 -75 350 -7 20 -4 22 28 22 19 0 45
-4 58 -9z m-845 -47 c38 -28 73 -92 73 -132 0 -42 -32 -104 -67 -131 l-28 -20
83 -78 c45 -43 82 -83 82 -90 0 -7 -24 -15 -57 -19 l-57 -7 -63 69 c-34 38
-63 72 -63 77 0 4 -15 7 -34 7 -19 0 -37 -3 -39 -7 -3 -5 2 -46 10 -92 8 -46
10 -87 6 -91 -4 -5 -26 -11 -48 -14 l-41 -7 -38 233 c-21 128 -41 247 -43 264
l-5 31 89 16 c118 20 205 17 240 -9z m1422 -60 l38 -6 17 -92 c29 -164 18
-158 116 -65 l84 80 48 -12 c26 -6 50 -14 52 -18 3 -4 -43 -50 -101 -102 -144
-128 -154 -142 -193 -248 -19 -52 -38 -90 -44 -88 -6 2 -28 10 -49 18 -27 10
-36 17 -31 29 3 8 19 52 34 97 l28 82 -34 156 c-39 180 -40 189 -18 181 9 -3
33 -9 53 -12z m-1929 -29 c0 -2 -26 -65 -59 -140 l-59 -135 45 -25 c25 -14 48
-25 51 -25 3 0 20 -11 38 -25 18 -14 35 -25 39 -25 10 0 135 -83 135 -90 0 -3
-21 -12 -47 -20 -27 -8 -53 -16 -59 -17 -6 -2 -59 28 -118 67 -58 38 -111 70
-116 70 -5 0 -14 -9 -20 -20 -8 -15 -4 -37 21 -100 19 -49 29 -84 23 -90 -5
-5 -26 -16 -47 -25 -35 -14 -38 -14 -43 2 -3 10 -45 118 -94 241 l-88 223 35
14 c62 26 66 23 102 -75 19 -49 37 -90 41 -90 4 0 12 15 18 33 26 77 79 208
89 218 19 19 113 48 113 34z m2490 -185 l39 -20 -46 -77 c-117 -196 -133 -227
-133 -266 0 -71 83 -117 149 -82 36 18 62 57 164 240 21 39 40 71 42 73 6 6
85 -39 85 -48 0 -6 -31 -65 -69 -133 -120 -211 -157 -247 -256 -247 -60 0
-104 19 -159 70 -51 47 -72 101 -61 159 6 34 45 112 105 211 15 25 39 66 54
93 15 26 31 47 37 47 5 0 27 -9 49 -20z m-3086 -234 c132 -88 326 -226 326
-232 0 -2 -18 -16 -40 -30 l-39 -26 -33 21 c-76 48 -69 48 -153 -15 l-77 -58
6 -41 c3 -22 7 -47 9 -56 2 -19 -73 -84 -83 -72 -4 5 -17 49 -28 98 -79 337
-92 394 -92 412 0 18 62 73 84 73 5 0 59 -33 120 -74z m3615 -136 l34 -29 -67
-77 c-55 -63 -65 -79 -54 -89 7 -7 44 -40 82 -74 l69 -62 73 72 74 73 30 -29
c16 -16 30 -32 30 -36 0 -13 -328 -369 -339 -369 -3 0 -21 14 -40 31 l-33 31
23 25 c13 14 46 48 72 75 l49 49 -47 41 c-26 23 -66 59 -88 79 -21 21 -45 35
-51 32 -6 -3 -38 -36 -71 -73 -33 -38 -62 -69 -65 -69 -3 0 -20 12 -39 28
l-34 28 71 81 c39 45 79 89 89 100 10 10 53 58 96 105 43 48 84 87 90 87 7 -1
27 -14 46 -30z m-2004 -92 c38 -7 95 -11 125 -11 321 8 365 7 455 -14 279 -67
577 -213 822 -403 63 -49 278 -263 307 -306 11 -18 50 -71 85 -120 177 -245
309 -563 366 -881 40 -220 38 -526 -6 -756 -48 -260 -181 -601 -295 -760 -19
-26 -34 -49 -34 -52 0 -3 -4 -11 -10 -18 -5 -7 -37 -49 -71 -94 -34 -46 -65
-83 -70 -83 -5 0 -9 -5 -9 -12 0 -21 -220 -226 -335 -313 -119 -89 -168 -118
-180 -107 -5 4 -5 2 -1 -5 3 -7 -5 -17 -21 -26 -118 -61 -195 -97 -236 -111
-27 -9 -61 -22 -75 -30 -15 -7 -39 -16 -54 -20 -27 -6 -27 -6 -12 21 19 37 18
50 -4 57 -27 9 -45 48 -46 100 -1 39 -3 43 -19 34 -46 -24 -20 5 61 70 232
185 396 421 492 711 58 173 74 275 74 486 1 197 -9 271 -56 434 -43 150 -142
371 -166 371 -4 0 -20 -23 -37 -51 -109 -184 -373 -329 -600 -329 -64 0 -62
-5 -44 115 10 64 15 76 33 80 11 3 42 9 68 15 143 30 262 98 332 189 44 57 96
153 96 178 0 17 -134 136 -211 188 -87 58 -246 138 -332 165 -37 12 -74 28
-81 35 -8 8 -16 12 -19 9 -12 -12 25 122 39 143 17 28 20 28 109 4 163 -42
327 -128 477 -248 42 -34 79 -59 82 -55 3 3 6 56 6 119 0 388 -209 743 -542
922 -88 48 -231 91 -302 91 -85 0 -421 -91 -571 -155 -138 -59 -311 -158 -425
-246 -79 -60 -236 -216 -286 -284 -16 -22 -31 -42 -34 -45 -29 -26 -147 -243
-194 -357 -121 -291 -138 -637 -45 -908 29 -84 111 -237 164 -305 132 -172
341 -299 574 -350 46 -10 88 -25 93 -32 16 -23 2 -95 -27 -141 -28 -43 -29
-44 -74 -39 -126 13 -334 96 -471 187 -234 155 -420 445 -496 770 -27 114 -27
473 -1 590 75 326 229 627 433 846 210 226 427 377 719 502 l90 38 -65 -6
c-378 -36 -796 -244 -1075 -536 -81 -85 -189 -216 -226 -274 -122 -190 -218
-408 -270 -608 -44 -173 -52 -245 -53 -477 -1 -196 2 -239 21 -335 33 -159 71
-280 136 -430 32 -72 54 -116 111 -216 78 -138 202 -295 337 -425 192 -184
418 -327 684 -430 78 -31 94 -40 72 -42 -36 -4 -51 -34 -43 -92 6 -42 4 -48
-19 -60 -37 -20 -81 -5 -300 101 -134 66 -186 96 -295 174 -19 14 -53 37 -75
52 -49 32 -365 347 -365 363 0 7 -17 33 -38 59 -157 192 -306 507 -375 791
-76 316 -75 679 3 990 93 372 283 722 528 974 357 366 812 593 1272 636 104
10 330 3 425 -12z m-1989 -123 c64 -60 143 -136 177 -167 l62 -58 -37 -36 -36
-37 -29 22 c-15 13 -49 43 -75 67 -26 24 -50 44 -55 44 -12 0 -143 -133 -143
-146 0 -7 34 -44 75 -82 l76 -69 -35 -39 -35 -39 -188 187 -187 187 29 31 c35
37 45 37 76 4 13 -14 46 -44 72 -67 l48 -40 70 69 c38 38 69 72 69 76 0 4 -28
37 -62 74 -35 36 -64 69 -66 73 -4 12 50 62 65 59 7 -2 65 -52 129 -113z
m1960 -248 l42 -12 -12 -35 c-10 -31 -15 -35 -45 -33 -34 1 -54 19 -47 40 6
14 -16 24 -31 15 -5 -4 -13 -14 -16 -22 -5 -13 -6 -13 -6 1 -1 19 26 45 54 52
11 2 20 5 20 6 0 0 19 -5 41 -12z m2601 -143 l23 -41 -82 -134 c-44 -74 -108
-179 -141 -234 -32 -55 -61 -102 -64 -105 -5 -5 -73 70 -73 82 0 4 14 27 30
51 17 25 30 50 30 55 0 6 -27 47 -61 91 -66 88 -65 88 -146 56 -34 -14 -46 -7
-73 44 -16 31 -6 39 72 61 34 10 140 41 233 69 94 27 183 49 200 48 24 -2 34
-10 52 -43z m-5037 -26 c-4 -46 -8 -52 -35 -61 -114 -37 -146 -145 -71 -234
44 -51 110 -83 171 -83 43 0 52 4 85 39 42 44 55 89 40 141 -16 56 -14 60 34
60 42 0 45 -2 56 -36 19 -57 8 -145 -23 -193 -96 -146 -285 -158 -417 -29 -58
57 -80 108 -80 188 0 71 19 124 64 177 31 36 118 83 156 83 25 0 25 -1 20 -52z
m2461 -19 c11 -11 19 -28 17 -37 -4 -22 -48 -37 -82 -28 -21 5 -26 12 -26 37
0 27 -3 30 -22 23 -36 -11 -69 -13 -62 -3 3 5 10 7 15 4 5 -4 9 -1 9 4 0 7 19
10 45 9 25 0 48 2 52 5 12 13 33 7 54 -14z m-128 -196 c-7 -2 -19 -2 -25 0 -7
3 -2 5 12 5 14 0 19 -2 13 -5z m212 -2 c3 -5 0 -13 -6 -17 -8 -4 -9 -3 -5 4 5
8 0 12 -13 12 -11 0 -23 -5 -26 -10 -4 -6 -11 -7 -18 -3 -7 4 -4 9 9 14 27 11
52 11 59 0z m-390 -10 c-3 -5 -1 -12 5 -16 5 -3 10 -1 10 4 0 6 9 11 20 11 11
0 20 -4 20 -9 0 -4 20 -14 44 -21 25 -7 53 -21 62 -31 26 -29 39 -23 65 26 13
25 29 45 35 45 6 0 23 -18 38 -40 16 -24 34 -40 46 -40 23 0 27 -15 5 -24 -10
-3 -25 10 -45 39 -17 25 -35 45 -40 45 -5 0 -16 -12 -24 -28 -8 -15 -23 -36
-35 -46 -21 -19 -22 -19 -49 7 -43 41 -139 67 -126 34 3 -8 -2 -20 -10 -27
-17 -14 -46 -7 -46 11 0 8 4 8 15 -1 23 -19 31 -3 10 20 -10 11 -15 20 -10 20
4 0 2 7 -5 15 -10 12 -9 15 4 15 10 0 15 -4 11 -9z m535 -1 c0 -5 -2 -10 -4
-10 -3 0 -8 5 -11 10 -3 6 -1 10 4 10 6 0 11 -4 11 -10z m84 1 c8 -13 -18 -21
-44 -14 -16 4 -18 8 -8 14 17 11 45 11 52 0z m-759 -38 c0 -21 5 -28 18 -27
10 1 16 -3 14 -10 -7 -21 -25 -11 -51 27 l-25 37 22 0 c18 0 23 -5 22 -27z
m855 22 c0 -17 -31 -75 -39 -75 -16 0 -13 17 4 24 8 3 15 17 15 31 0 14 5 25
10 25 6 0 10 -2 10 -5z m-250 -9 c0 -2 -7 -7 -16 -10 -8 -3 -12 -2 -9 4 6 10
25 14 25 6z m110 1 c0 -2 -9 -12 -19 -21 -19 -17 -19 -17 -14 3 3 12 12 21 19
21 8 0 14 -2 14 -3z m-50 -42 c7 -9 8 -15 2 -15 -5 0 -12 7 -16 15 -3 8 -4 15
-2 15 2 0 9 -7 16 -15z m-667 -159 l38 -70 -53 -24 c-102 -45 -134 -64 -195
-115 -168 -143 -243 -307 -246 -537 -3 -331 214 -559 534 -560 l66 0 -9 -62
c-12 -88 -27 -131 -44 -124 -8 3 -14 1 -14 -4 0 -26 -190 -2 -292 36 -293 111
-466 406 -444 757 14 210 83 389 207 536 90 105 173 172 289 230 110 56 97 61
163 -63z m475 -313 c-26 -2 -71 -2 -100 0 -29 2 -8 3 47 3 55 0 79 -1 53 -3z
m35 -19 c20 -4 37 -11 37 -15 0 -10 -203 -12 -239 -2 -23 6 -23 7 -5 14 23 9
155 11 207 3z m-378 -14 c3 -5 -1 -10 -10 -10 -9 0 -13 5 -10 10 3 6 8 10 10
10 2 0 7 -4 10 -10z m330 -109 c30 -7 11 -9 -75 -9 -72 0 -104 3 -85 8 41 10
112 11 160 1z m-337 -53 c-3 -7 -24 -14 -49 -16 -43 -2 -43 -2 -19 13 31 18
73 20 68 3z m448 -1 c4 -4 4 -10 1 -13 -10 -10 -239 -17 -293 -9 -48 7 -48 7
-24 21 19 11 57 14 167 11 79 -2 146 -6 149 -10z m206 -5 c4 -4 -10 -6 -32 -4
-22 2 -40 9 -40 14 0 11 59 3 72 -10z m-697 -122 c-11 -5 -30 -9 -42 -9 -33
-1 -87 -37 -95 -63 -6 -22 -6 -22 -7 -2 -2 46 58 81 144 82 l20 1 -20 -9z
m423 4 c50 -4 89 -11 86 -15 -7 -12 -354 -11 -354 0 0 9 35 14 141 19 20 1 77
-1 127 -4z m347 -16 c15 -6 25 -19 25 -32 0 -17 -2 -18 -12 -4 -7 8 -24 22
-38 32 -28 18 -13 22 25 4z m434 -707 c21 -14 25 -126 7 -230 -37 -209 -113
-366 -243 -499 l-51 -52 -32 37 c-39 48 -46 77 -30 127 7 23 13 55 14 72 1 17
8 39 16 49 8 9 19 25 25 35 71 121 105 231 105 346 0 53 4 85 12 90 11 7 118
31 148 33 8 0 21 -3 29 -8z m-844 -66 c28 -6 42 -36 77 -170 5 -22 15 -81 22
-132 11 -81 11 -92 -3 -96 -31 -7 -207 -8 -235 -1 l-29 7 7 76 c14 162 38 293
58 319 10 11 35 11 103 -3z m-395 -326 c0 -11 -4 -18 -10 -14 -5 3 -7 12 -3
20 7 21 13 19 13 -6z m-32 -56 c-11 -15 -10 -16 10 -11 12 4 20 3 17 -2 -3 -4
-16 -10 -29 -12 -24 -5 -24 -5 -7 28 9 17 18 28 19 23 2 -5 -2 -17 -10 -26z
m572 -62 l95 -6 -117 -9 c-133 -9 -430 4 -323 15 82 8 231 8 345 0z m-10 -171
c5 -8 10 -25 10 -37 0 -27 -21 -32 -187 -42 -101 -6 -134 -5 -155 6 -33 16
-32 13 -13 49 18 35 57 43 223 40 88 -1 115 -4 122 -16z m-628 -35 c16 -14 38
-25 48 -25 9 0 23 -7 30 -15 10 -12 9 -15 -8 -15 -22 0 -35 -22 -26 -45 11
-28 -6 -65 -34 -77 -23 -9 -211 -28 -220 -22 -2 1 23 28 55 61 32 33 72 82 88
111 17 28 32 52 34 52 2 0 16 -11 33 -25z m972 -27 c9 -36 105 -138 129 -139
21 0 21 -1 2 -8 -14 -6 -28 -2 -46 13 -15 12 -24 24 -22 29 2 4 -15 7 -38 7
-52 0 -79 22 -79 65 0 51 42 77 54 33z m-247 -171 c4 -5 -1 -15 -12 -23 -30
-22 -520 -16 -520 6 0 8 13 18 30 21 43 10 492 6 502 -4z m-165 -224 c-51 -2
-132 -2 -180 0 -48 1 -6 3 93 3 99 0 138 -2 87 -3z m172 -42 c12 -18 -327 -28
-490 -14 -138 12 -45 21 228 22 141 1 259 -3 262 -8z m-2611 -950 c24 -10 54
-31 66 -47 18 -23 20 -30 8 -41 -8 -8 -20 -15 -28 -16 -8 -2 -19 -6 -25 -10
-7 -4 -14 0 -17 8 -12 28 -68 48 -124 42 -43 -4 -60 -12 -86 -38 -30 -30 -32
-38 -34 -103 -2 -83 16 -122 64 -142 53 -23 125 -18 167 11 31 21 40 23 61 13
28 -13 32 -23 10 -32 -9 -3 -12 -12 -9 -21 5 -11 0 -18 -15 -22 -11 -3 -21
-10 -21 -15 0 -6 -12 -7 -27 -4 -18 4 -23 3 -15 -2 21 -14 -9 -22 -81 -22 -73
0 -134 26 -129 56 2 13 0 15 -6 7 -12 -18 -35 1 -61 52 -40 76 -19 213 43 282
54 60 173 81 259 44z m230 9 c17 0 18 -8 15 -90 l-3 -90 103 0 102 0 0 96 0
95 38 -3 37 -3 3 -214 c3 -231 1 -241 -49 -241 l-29 0 0 95 0 95 -99 0 c-115
0 -110 6 -112 -120 -2 -72 -2 -73 -9 -25 -5 37 -7 41 -8 18 -3 -45 -12 -63
-32 -63 -14 0 -18 13 -23 83 -9 112 -9 362 0 371 4 4 17 5 28 2 11 -3 28 -6
38 -6z m685 -35 l3 -40 -98 0 -98 0 -3 -52 -3 -53 85 0 86 0 0 -40 0 -40 -91
0 c-79 0 -90 -2 -85 -16 3 -9 6 -33 6 -55 l0 -39 105 0 105 0 0 -40 0 -40
-144 0 -143 0 -7 46 c-8 63 -8 399 1 408 4 3 68 5 142 4 l136 -3 3 -40z m299
30 c37 -16 73 -50 73 -69 0 -10 -44 -36 -62 -36 -4 0 -17 9 -28 20 -30 30 -95
27 -115 -4 -21 -32 -11 -50 38 -71 146 -62 166 -79 168 -146 2 -53 -9 -77 -53
-114 -30 -25 -37 -27 -109 -23 -65 2 -82 7 -102 27 -36 33 -54 80 -36 92 25
16 53 10 74 -17 43 -54 145 -39 145 21 0 29 -13 39 -85 66 -77 28 -103 45
-121 80 -32 62 -3 147 59 174 42 19 109 19 154 0z m354 4 c66 -23 102 -77 62
-94 -35 -15 -47 -13 -71 12 -20 22 -28 25 -65 19 -46 -8 -57 -18 -57 -57 0
-20 9 -30 41 -47 22 -12 48 -22 57 -23 14 0 13 -2 -3 -10 -16 -7 -14 -9 12 -6
18 2 30 0 28 -3 -2 -4 13 -14 34 -23 40 -18 51 -42 51 -106 0 -32 -57 -104
-76 -97 -8 3 -14 1 -14 -4 0 -11 -81 -13 -129 -4 -63 13 -119 101 -75 118 28
11 42 6 72 -24 20 -19 41 -30 59 -30 36 0 103 19 103 29 0 4 10 7 23 7 16 -1
23 5 25 22 4 25 -18 38 -45 27 -19 -7 -29 -4 -26 6 1 4 -26 14 -60 24 -86 24
-112 39 -142 82 -77 114 50 231 196 182z m2427 -36 l3 -41 -98 2 c-54 1 -104
0 -110 -2 -8 -3 -13 -23 -13 -53 l0 -49 95 0 95 0 0 -40 0 -39 -92 -3 -93 -3
-3 -52 -3 -53 110 0 111 0 0 -39 0 -39 -148 -1 -148 -2 -2 221 c-1 122 1 226
4 231 3 6 66 8 147 7 l142 -3 3 -42z m176 41 c9 -3 16 -10 16 -14 0 -6 75
-172 112 -248 7 -12 15 -19 20 -14 4 4 35 66 68 137 l60 130 45 5 c25 4 48 4
50 1 3 -2 5 -105 5 -228 l0 -223 -35 0 -35 0 -1 53 c-1 28 -2 96 -3 150 -1 53
-4 97 -8 97 -4 0 -14 -18 -24 -40 -10 -21 -22 -36 -27 -33 -6 3 -7 1 -4 -4 9
-14 -49 -149 -62 -146 -5 1 -7 -7 -4 -17 4 -17 0 -20 -26 -20 -24 0 -34 6 -41
25 -26 67 -101 215 -110 215 -6 0 -10 -54 -10 -140 l0 -140 -35 0 -35 0 -1 58
c-1 31 -3 131 -5 221 -2 90 -1 168 2 172 6 10 65 12 88 3z m805 0 c26 -5 29
-9 20 -21 -10 -11 -14 -12 -22 -1 -6 9 -7 8 -3 -5 7 -22 -13 -67 -31 -67 -7 0
-13 -11 -13 -25 0 -18 -5 -25 -19 -25 -15 0 -19 -7 -19 -30 1 -32 -6 -45 -24
-45 -6 0 -13 -7 -15 -15 -4 -13 -3 -13 6 0 6 8 11 11 11 5 -1 -5 -7 -19 -15
-29 -8 -11 -15 -42 -16 -70 0 -28 -4 -69 -8 -91 l-7 -40 -8 43 c-6 32 -12 42
-27 42 -16 0 -19 8 -20 58 -1 96 -8 127 -24 103 -3 -6 -1 -11 4 -11 6 0 11 -4
11 -10 0 -17 -18 -11 -24 8 -3 9 -5 21 -5 26 0 5 -3 12 -8 15 -12 8 -73 97
-73 106 0 4 -9 18 -20 32 -29 37 -25 43 24 43 39 0 45 -3 60 -32 28 -55 71
-127 82 -138 12 -12 45 35 83 117 21 45 32 56 62 62 4 0 21 -2 38 -5z m-1437
-39 c61 -44 83 -92 83 -185 -1 -159 -89 -230 -287 -230 l-88 0 0 179 c0 98 -3
199 -6 225 l-7 48 131 -4 c127 -3 132 -4 174 -33z m-458 -154 c7 -11 96 -251
96 -258 0 -9 -69 -1 -78 10 -9 11 -25 67 -26 92 -1 6 -11 11 -23 13 -13 2 -23
10 -23 18 0 8 5 12 10 9 14 -9 12 29 -2 43 -9 9 -9 12 0 12 7 0 12 9 12 20 0
11 7 20 15 20 12 0 13 4 7 18 -6 9 -12 37 -16 62 l-6 45 14 -46 c7 -26 17 -52
20 -58z m-77 47 c-3 -8 -6 -5 -6 6 -1 11 2 17 5 13 3 -3 4 -12 1 -19z m33 -75
c0 -21 -3 -24 -9 -14 -5 8 -7 20 -4 28 8 21 13 15 13 -14z m-117 -8 c-3 -9 -8
-14 -10 -11 -3 3 -2 9 2 15 9 16 15 13 8 -4z m-76 -67 c-3 -7 -5 -2 -5 12 0
14 2 19 5 13 2 -7 2 -19 0 -25z m163 3 c0 -5 3 -16 6 -25 5 -13 -1 -16 -29
-16 -28 0 -35 4 -39 23 -4 21 -1 24 29 25 18 1 33 -3 33 -7z m-1083 -23 c-3
-8 -6 -5 -6 6 -1 11 2 17 5 13 3 -3 4 -12 1 -19z m-23 -77 c-16 -15 -16 -15
-9 4 4 11 10 29 13 40 6 18 7 18 10 -4 2 -13 -4 -31 -14 -40z m76 43 c0 -8 -5
-12 -10 -9 -6 4 -8 11 -5 16 9 14 15 11 15 -7z m927 10 c-3 -3 -12 -4 -19 -1
-8 3 -5 6 6 6 11 1 17 -2 13 -5z m-187 -29 c-7 -9 -15 -13 -19 -10 -3 3 1 10
9 15 21 14 24 12 10 -5z m-520 -20 c0 -8 -2 -15 -4 -15 -2 0 -6 7 -10 15 -3 8
-1 15 4 15 6 0 10 -7 10 -15z m-251 -59 c-9 -8 -10 -7 -5 7 3 10 7 24 7 30 1
7 3 4 6 -7 3 -10 -1 -23 -8 -30z m696 24 c-3 -5 -14 -10 -23 -9 -14 0 -13 2 3
9 27 11 27 11 20 0z m-760 -20 c3 -5 1 -10 -4 -10 -6 0 -11 5 -11 10 0 6 2 10
4 10 3 0 8 -4 11 -10z"/>
<path d="M5081 7870 c-17 -43 -31 -85 -31 -92 0 -9 19 -13 65 -13 43 0 65 4
65 12 0 13 -60 173 -65 173 -2 0 -17 -36 -34 -80z"/>
<path d="M4495 7931 c-30 -7 -30 -7 -27 -66 1 -33 7 -64 12 -69 13 -13 119 9
138 27 19 20 18 74 -3 97 -19 21 -59 24 -120 11z"/>
<path d="M3470 7434 c0 -9 10 -52 21 -95 24 -87 23 -87 97 -32 32 24 33 25 15
45 -10 11 -44 38 -75 60 -45 30 -58 35 -58 22z"/>
<path d="M5988 6924 c169 -155 304 -393 369 -651 25 -97 27 -125 27 -283 0
-127 -5 -193 -17 -240 -14 -57 -14 -68 -1 -85 107 -149 168 -268 229 -445 76
-222 90 -316 90 -590 0 -262 -11 -335 -82 -555 -44 -137 -134 -322 -200 -411
-13 -17 -23 -34 -23 -38 0 -15 122 88 214 180 315 318 493 690 558 1164 16
119 4 455 -21 577 -42 203 -78 306 -178 508 -66 135 -94 180 -185 304 -181
244 -436 449 -719 577 -65 30 -122 54 -126 54 -4 0 25 -30 65 -66z"/>
<path d="M5958 3183 c7 -3 16 -2 19 1 4 3 -2 6 -13 5 -11 0 -14 -3 -6 -6z"/>
<path d="M7541 6673 c-52 -18 -96 -35 -97 -36 -4 -4 65 -105 76 -112 13 -8
125 155 118 174 -2 4 -45 -7 -97 -26z"/>
<path d="M2693 2413 c9 -2 23 -2 30 0 6 3 -1 5 -18 5 -16 0 -22 -2 -12 -5z"/>
<path d="M7616 2633 c-6 -14 -5 -15 5 -6 7 7 10 15 7 18 -3 3 -9 -2 -12 -12z"/>
<path d="M7612 2490 c0 -19 2 -27 5 -17 2 9 2 25 0 35 -3 9 -5 1 -5 -18z"/>
<path d="M7576 2495 c4 -8 10 -12 15 -9 14 8 10 24 -6 24 -9 0 -12 -6 -9 -15z"/>
<path d="M6110 2585 l0 -151 73 6 c88 8 111 19 137 70 23 44 25 82 9 131 -24
70 -63 92 -166 93 l-53 1 0 -150z"/>
<path d="M6340 2650 c0 -5 5 -10 11 -10 5 0 7 5 4 10 -3 6 -8 10 -11 10 -2 0
-4 -4 -4 -10z"/>
</g>
</svg>
